<svg width="400" height="300" viewBox="0 0 400 300" fill="none" xmlns="http://www.w3.org/2000/svg">
  <defs>
    <linearGradient id="bg14" x1="0%" y1="0%" x2="100%" y2="100%">
      <stop offset="0%" style="stop-color:#034078;stop-opacity:0.3" />
      <stop offset="100%" style="stop-color:#044078;stop-opacity:0.4" />
    </linearGradient>
  </defs>
  
  <!-- Background -->
  <rect width="400" height="300" fill="#f8f9fa" rx="16" stroke="#034078" stroke-width="2"/>
  
  <!-- Title -->
  <text x="200" y="30" text-anchor="middle" fill="#034078" font-size="18" font-weight="bold">Cloud Infrastructure & DevOps</text>
  
  <!-- Cloud Shapes -->
  <ellipse cx="200" cy="100" rx="80" ry="40" fill="#034078" opacity="0.3"/>
  <ellipse cx="180" cy="90" rx="60" ry="30" fill="#044078" opacity="0.4"/>
  <ellipse cx="220" cy="90" rx="50" ry="25" fill="#034078" opacity="0.5"/>
  
  <!-- Server Nodes -->
  <rect x="120" y="180" width="40" height="60" fill="#034078" rx="4" opacity="0.8"/>
  <rect x="180" y="180" width="40" height="60" fill="#044078" rx="4" opacity="0.8"/>
  <rect x="240" y="180" width="40" height="60" fill="#034078" rx="4" opacity="0.8"/>
  
  <!-- Connection Lines -->
  <path d="M200 140 L140 180" stroke="#034078" stroke-width="2" opacity="0.6"/>
  <path d="M200 140 L200 180" stroke="#034078" stroke-width="2" opacity="0.6"/>
  <path d="M200 140 L260 180" stroke="#034078" stroke-width="2" opacity="0.6"/>
  
  <!-- Data Flow Indicators -->
  <circle cx="170" cy="160" r="3" fill="#034078">
    <animate attributeName="opacity" values="0.5;1;0.5" dur="1.5s" repeatCount="indefinite"/>
  </circle>
  <circle cx="200" cy="160" r="3" fill="#044078">
    <animate attributeName="opacity" values="0.5;1;0.5" dur="1.5s" repeatCount="indefinite" begin="0.3s"/>
  </circle>
  <circle cx="230" cy="160" r="3" fill="#034078">
    <animate attributeName="opacity" values="0.5;1;0.5" dur="1.5s" repeatCount="indefinite" begin="0.6s"/>
  </circle>
  
  <!-- DevOps Tools -->
  <rect x="80" y="220" width="50" height="30" fill="#034078" opacity="0.6" rx="4"/>
  <text x="105" y="238" text-anchor="middle" fill="white" font-size="9" font-weight="bold">Docker</text>
  
  <rect x="140" y="220" width="50" height="30" fill="#044078" opacity="0.6" rx="4"/>
  <text x="165" y="238" text-anchor="middle" fill="white" font-size="9" font-weight="bold">K8s</text>
  
  <rect x="200" y="220" width="50" height="30" fill="#034078" opacity="0.6" rx="4"/>
  <text x="225" y="238" text-anchor="middle" fill="white" font-size="9" font-weight="bold">CI/CD</text>
  
  <rect x="260" y="220" width="50" height="30" fill="#044078" opacity="0.6" rx="4"/>
  <text x="285" y="238" text-anchor="middle" fill="white" font-size="9" font-weight="bold">Terraform</text>
  
  <!-- Labels -->
  <text x="200" y="50" text-anchor="middle" fill="#034078" font-size="16" font-weight="bold">Cloud Infrastructure & DevOps</text>
  <text x="200" y="270" text-anchor="middle" fill="#034078" font-size="12">Scalable & Reliable</text>
</svg>
