<svg viewBox="0 0 100 100" fill="none" xmlns="http://www.w3.org/2000/svg">
  <!-- Background with gradient -->
  <defs>
    <linearGradient id="logoGradient" x1="0%" y1="0%" x2="100%" y2="100%">
      <stop offset="0%" stop-color="#034078" />
      <stop offset="100%" stop-color="#1282a2" />
    </linearGradient>
    <linearGradient id="innerGradient" x1="0%" y1="0%" x2="100%" y2="100%">
      <stop offset="0%" stop-color="#fefcfb" />
      <stop offset="100%" stop-color="#e0e1dd" />
    </linearGradient>
  </defs>
  
  <!-- Main A shape with gradient -->
  <path d="M20 80 L50 20 L80 80 L70 80 L50 50 L30 80 Z" fill="url(#logoGradient)" stroke="#1282a2" stroke-width="1"/>
  
  <!-- Crossbar of the A -->
  <rect x="35" y="65" width="30" height="8" fill="url(#logoGradient)" stroke="#1282a2" stroke-width="0.5"/>
  
  <!-- Circuit board pattern inside the A -->
  <g>
    <!-- Vertical line up the left leg -->
    <line x1="35" y1="75" x2="35" y2="45" stroke="url(#innerGradient)" stroke-width="2" stroke-linecap="round"/>
    
    <!-- Horizontal line across the crossbar -->
    <line x1="35" y1="69" x2="65" y2="69" stroke="url(#innerGradient)" stroke-width="2" stroke-linecap="round"/>
    
    <!-- Vertical line down the right leg -->
    <line x1="65" y1="45" x2="65" y2="75" stroke="url(#innerGradient)" stroke-width="2" stroke-linecap="round"/>
    
    <!-- Extended line from bottom left node -->
    <line x1="35" y1="75" x2="25" y2="75" stroke="url(#innerGradient)" stroke-width="2" stroke-linecap="round"/>
    
    <!-- Circuit nodes -->
    <circle cx="35" cy="45" r="2" fill="url(#innerGradient)"/>
    <circle cx="35" cy="69" r="2" fill="url(#innerGradient)"/>
    <circle cx="65" cy="69" r="2" fill="url(#innerGradient)"/>
    <circle cx="65" cy="45" r="2" fill="url(#innerGradient)"/>
    <circle cx="35" cy="75" r="2" fill="url(#innerGradient)"/>
    <circle cx="25" cy="75" r="2" fill="url(#innerGradient)"/>
    
    <!-- Central connection node -->
    <circle cx="50" cy="69" r="2.5" fill="#034078"/>
  </g>
  
  <!-- Subtle glow effect -->
  <path d="M18 82 L50 18 L82 82 L72 82 L50 48 L28 82 Z" fill="none" stroke="url(#logoGradient)" stroke-width="1" opacity="0.3"/>
</svg>
